<?xml version="1.0" standalone="no"?><!DOCTYPE svg PUBLIC "-//W3C//DTD SVG 1.1//EN" "http://www.w3.org/Graphics/SVG/1.1/DTD/svg11.dtd"><svg t="1680314764859" class="icon" viewBox="0 0 1024 1024" version="1.1" xmlns="http://www.w3.org/2000/svg" p-id="2895" xmlns:xlink="http://www.w3.org/1999/xlink" width="200" height="200"><path d="M929.1 637.6c-16.1-36-10.4-73.2-4.9-109.1 8.5-55.6 18.8-123.7-69.7-163.5 5.9-21.2 5.4-45.6-12.5-54.2l-105.3-50.7c-23-11.1-83-8.7-90.1 5.9-7 14.6-26.4 45 22.8 56.3s95 68.9 95 68.9c16.5 16.1 35.5 25.7 50.4 25.9 59 20.7 55.7 44.9 47 101.8-6.3 40.7-14 91.5 9.7 144.5 32 71.4 33.9 113.4 6.3 140.4-33.8 33.3-79.5 22.7-108.3 3.6-38.9-25.8-39.5-73.5-36-149.1 2-42.8 4.1-87-8.5-124.7C696.9 450 611 449 607 449h-38.2V164.9c0-17.4-14.2-31.6-31.6-31.6H158.7c-17.3 0-31.6 14.2-31.6 31.6v662.6H95.6s-31.6 0-31.6 31.6v31.6h568.2v-31.6s0-31.6-31.6-31.6H569V512h37.9c4.6 0.1 45.2 2 58.5 41.6 8.9 26.5 7.1 63 5.3 101.7-3.5 73.7-7.4 157.2 64.1 204.6 28.7 19 60 28.4 90.3 28.4 35.9 0 70.4-13.3 97.1-39.5 70.4-69.2 24.2-172.3 6.9-211.2zM785.4 376c-8.7 0-15.8-7.1-15.8-15.8 0-8.7 7.1-15.8 15.8-15.8s15.8 7.1 15.8 15.8-7 15.8-15.8 15.8z m-279.7 41.3c0 17.3-14.2 31.6-31.6 31.6H221.8c-17.3 0-31.6-14.2-31.6-31.6V228c0-17.3 14.2-31.6 31.6-31.6h252.4c17.3 0 31.6 14.2 31.6 31.6v189.3h-0.1z" p-id="2896" fill="#ffffff"></path></svg>